<svg preserveAspectRatio="xMidYMid meet" width="680" height="250" xmlns="http://www.w3.org/2000/svg" xmlns:xlink="http://www.w3.org/1999/xlink" version="1.1" baseProfile="full" viewBox="0 0 680 250">
<rect width="680" height="250" x="0" y="0" fill="none"></rect>
<path d="M116.5 24L116.5 230" fill="none" pointer-events="visible" stroke="#dbe3ea" stroke-width="0.8" stroke-dasharray="4,4" class="zr16-cls-72"></path>
<path d="M251.5 24L251.5 230" fill="none" pointer-events="visible" stroke="#dbe3ea" stroke-width="0.8" stroke-dasharray="4,4" class="zr16-cls-72"></path>
<path d="M387.5 24L387.5 230" fill="none" pointer-events="visible" stroke="#dbe3ea" stroke-width="0.8" stroke-dasharray="4,4" class="zr16-cls-72"></path>
<path d="M522.5 24L522.5 230" fill="none" pointer-events="visible" stroke="#dbe3ea" stroke-width="0.8" stroke-dasharray="4,4" class="zr16-cls-72"></path>
<path d="M658.5 24L658.5 230" fill="none" pointer-events="visible" stroke="#dbe3ea" stroke-width="0.8" stroke-dasharray="4,4" class="zr16-cls-72"></path>
<path d="M-104 -5.5l104 0l0 11l-104 0Z" transform="translate(108 215.2857)" fill="none" pointer-events="visible" class="zr16-cls-72"></path>
<text dominant-baseline="central" text-anchor="end" style="font-size:10px;font-family:Carlito, Calibri, 'DejaVu Sans', sans-serif;" xml:space="preserve" transform="translate(108 215.2857)" fill="#5b6875">Tax 25.2% / 18.0%</text>
<path d="M-104 -11l104 0l0 22l-104 0Z" transform="translate(108 185.8571)" fill="none" pointer-events="visible" class="zr16-cls-72"></path>
<text dominant-baseline="central" text-anchor="end" style="font-size:10px;font-family:Carlito, Calibri, 'DejaVu Sans', sans-serif;" xml:space="preserve" y="-5.5" transform="translate(108 185.8571)" fill="#5b6875">Risk-free 7.70% / </text>
<text dominant-baseline="central" text-anchor="end" style="font-size:10px;font-family:Carlito, Calibri, 'DejaVu Sans', sans-serif;" y="5.5" transform="translate(108 185.8571)" fill="#5b6875">6.70%</text>
<path d="M-104 -11l104 0l0 22l-104 0Z" transform="translate(108 156.4286)" fill="none" pointer-events="visible" class="zr16-cls-72"></path>
<text dominant-baseline="central" text-anchor="end" style="font-size:10px;font-family:Carlito, Calibri, 'DejaVu Sans', sans-serif;" xml:space="preserve" y="-5.5" transform="translate(108 156.4286)" fill="#5b6875">Terminal growth 3.0% /</text>
<text dominant-baseline="central" text-anchor="end" style="font-size:10px;font-family:Carlito, Calibri, 'DejaVu Sans', sans-serif;" xml:space="preserve" y="5.5" transform="translate(108 156.4286)" fill="#5b6875"> 5.0%</text>
<path d="M-104 -5.5l104 0l0 11l-104 0Z" transform="translate(108 127)" fill="none" pointer-events="visible" class="zr16-cls-72"></path>
<text dominant-baseline="central" text-anchor="end" style="font-size:10px;font-family:Carlito, Calibri, 'DejaVu Sans', sans-serif;" xml:space="preserve" transform="translate(108 127)" fill="#5b6875">Beta 1.10 / 0.70</text>
<path d="M-104 -11l104 0l0 22l-104 0Z" transform="translate(108 97.5714)" fill="none" pointer-events="visible" class="zr16-cls-72"></path>
<text dominant-baseline="central" text-anchor="end" style="font-size:10px;font-family:Carlito, Calibri, 'DejaVu Sans', sans-serif;" xml:space="preserve" y="-5.5" transform="translate(108 97.5714)" fill="#5b6875">EBIT margin -3pp / </text>
<text dominant-baseline="central" text-anchor="end" style="font-size:10px;font-family:Carlito, Calibri, 'DejaVu Sans', sans-serif;" y="5.5" transform="translate(108 97.5714)" fill="#5b6875">+3pp</text>
<path d="M-104 -11l104 0l0 22l-104 0Z" transform="translate(108 68.1429)" fill="none" pointer-events="visible" class="zr16-cls-72"></path>
<text dominant-baseline="central" text-anchor="end" style="font-size:10px;font-family:Carlito, Calibri, 'DejaVu Sans', sans-serif;" xml:space="preserve" y="-5.5" transform="translate(108 68.1429)" fill="#5b6875">Capex +3pp / -3pp of </text>
<text dominant-baseline="central" text-anchor="end" style="font-size:10px;font-family:Carlito, Calibri, 'DejaVu Sans', sans-serif;" y="5.5" transform="translate(108 68.1429)" fill="#5b6875">sales</text>
<path d="M-104 -11l104 0l0 22l-104 0Z" transform="translate(108 38.7143)" fill="none" pointer-events="visible" class="zr16-cls-72"></path>
<text dominant-baseline="central" text-anchor="end" style="font-size:10px;font-family:Carlito, Calibri, 'DejaVu Sans', sans-serif;" xml:space="preserve" y="-5.5" transform="translate(108 38.7143)" fill="#5b6875">Revenue growth -3pp /</text>
<text dominant-baseline="central" text-anchor="end" style="font-size:10px;font-family:Carlito, Calibri, 'DejaVu Sans', sans-serif;" xml:space="preserve" y="5.5" transform="translate(108 38.7143)" fill="#5b6875"> +3pp a year</text>
<text dominant-baseline="central" text-anchor="middle" style="font-size:10px;font-family:Carlito, Calibri, 'DejaVu Sans', sans-serif;" y="5" transform="translate(116 236)" fill="#5b6875">0</text>
<text dominant-baseline="central" text-anchor="middle" style="font-size:10px;font-family:Carlito, Calibri, 'DejaVu Sans', sans-serif;" y="5" transform="translate(251.5 236)" fill="#5b6875">50</text>
<text dominant-baseline="central" text-anchor="middle" style="font-size:10px;font-family:Carlito, Calibri, 'DejaVu Sans', sans-serif;" y="5" transform="translate(387 236)" fill="#5b6875">100</text>
<text dominant-baseline="central" text-anchor="middle" style="font-size:10px;font-family:Carlito, Calibri, 'DejaVu Sans', sans-serif;" y="5" transform="translate(522.5 236)" fill="#5b6875">150</text>
<text dominant-baseline="central" text-anchor="middle" style="font-size:10px;font-family:Carlito, Calibri, 'DejaVu Sans', sans-serif;" y="5" transform="translate(658 236)" fill="#5b6875">200</text>
<path d="M116 204.5l319.8 0l0 10.2l-319.8 0Z" fill="none" pointer-events="visible" ecmeta_series_index="0" ecmeta_data_index="0" ecmeta_ssr_type="chart" ecmeta_silent="true" class="zr16-cls-72"></path>
<path d="M116 175.1l314.4 0l0 10.2l-314.4 0Z" fill="none" pointer-events="visible" ecmeta_series_index="0" ecmeta_data_index="1" ecmeta_ssr_type="chart" ecmeta_silent="true" class="zr16-cls-72"></path>
<path d="M116 145.7l308.9 0l0 10.2l-308.9 0Z" fill="none" pointer-events="visible" ecmeta_series_index="0" ecmeta_data_index="2" ecmeta_ssr_type="chart" ecmeta_silent="true" class="zr16-cls-72"></path>
<path d="M116 116.3l303.5 0l0 10.2l-303.5 0Z" fill="none" pointer-events="visible" ecmeta_series_index="0" ecmeta_data_index="3" ecmeta_ssr_type="chart" ecmeta_silent="true" class="zr16-cls-72"></path>
<path d="M116 86.8l295.4 0l0 10.2l-295.4 0Z" fill="none" pointer-events="visible" ecmeta_series_index="0" ecmeta_data_index="4" ecmeta_ssr_type="chart" ecmeta_silent="true" class="zr16-cls-72"></path>
<path d="M116 57.4l281.8 0l0 10.2l-281.8 0Z" fill="none" pointer-events="visible" ecmeta_series_index="0" ecmeta_data_index="5" ecmeta_ssr_type="chart" ecmeta_silent="true" class="zr16-cls-72"></path>
<path d="M116 28l262.9 0l0 10.2l-262.9 0Z" fill="none" pointer-events="visible" ecmeta_series_index="0" ecmeta_data_index="6" ecmeta_ssr_type="chart" ecmeta_silent="true" class="zr16-cls-72"></path>
<path d="M435.8 204.5l21.7 0l0 10.2l-21.7 0Z" fill="#b3261e" ecmeta_series_index="1" ecmeta_data_index="0" ecmeta_ssr_type="chart" class="zr16-cls-73"></path>
<path d="M430.4 175.1l27.1 0l0 10.2l-27.1 0Z" fill="#b3261e" ecmeta_series_index="1" ecmeta_data_index="1" ecmeta_ssr_type="chart" class="zr16-cls-73"></path>
<path d="M424.9 145.7l32.5 0l0 10.2l-32.5 0Z" fill="#b3261e" ecmeta_series_index="1" ecmeta_data_index="2" ecmeta_ssr_type="chart" class="zr16-cls-73"></path>
<path d="M419.5 116.3l37.9 0l0 10.2l-37.9 0Z" fill="#b3261e" ecmeta_series_index="1" ecmeta_data_index="3" ecmeta_ssr_type="chart" class="zr16-cls-73"></path>
<path d="M411.4 86.8l46.1 0l0 10.2l-46.1 0Z" fill="#b3261e" ecmeta_series_index="1" ecmeta_data_index="4" ecmeta_ssr_type="chart" class="zr16-cls-73"></path>
<path d="M397.8 57.4l59.6 0l0 10.2l-59.6 0Z" fill="#b3261e" ecmeta_series_index="1" ecmeta_data_index="5" ecmeta_ssr_type="chart" class="zr16-cls-73"></path>
<path d="M378.9 28l78.6 0l0 10.2l-78.6 0Z" fill="#b3261e" ecmeta_series_index="1" ecmeta_data_index="6" ecmeta_ssr_type="chart" class="zr16-cls-73"></path>
<path d="M457.5 204.5L482.6 204.5A2 2 0 0 1 484.6 206.5L484.6 212.8A2 2 0 0 1 482.6 214.8L457.5 214.8L457.5 204.5Z" fill="#1a7f4b" ecmeta_series_index="2" ecmeta_data_index="0" ecmeta_ssr_type="chart" class="zr16-cls-74"></path>
<path d="M457.5 175.1L485.3 175.1A2 2 0 0 1 487.3 177.1L487.3 183.3A2 2 0 0 1 485.3 185.3L457.5 185.3L457.5 175.1Z" fill="#1a7f4b" ecmeta_series_index="2" ecmeta_data_index="1" ecmeta_ssr_type="chart" class="zr16-cls-74"></path>
<path d="M457.5 145.7L498.8 145.7A2 2 0 0 1 500.8 147.7L500.8 153.9A2 2 0 0 1 498.8 155.9L457.5 155.9L457.5 145.7Z" fill="#1a7f4b" ecmeta_series_index="2" ecmeta_data_index="2" ecmeta_ssr_type="chart" class="zr16-cls-74"></path>
<path d="M457.5 116.3L501.5 116.3A2 2 0 0 1 503.5 118.3L503.5 124.5A2 2 0 0 1 501.5 126.5L457.5 126.5L457.5 116.3Z" fill="#1a7f4b" ecmeta_series_index="2" ecmeta_data_index="3" ecmeta_ssr_type="chart" class="zr16-cls-74"></path>
<path d="M457.5 86.8L501.5 86.8A2 2 0 0 1 503.5 88.8L503.5 95.1A2 2 0 0 1 501.5 97.1L457.5 97.1L457.5 86.8Z" fill="#1a7f4b" ecmeta_series_index="2" ecmeta_data_index="4" ecmeta_ssr_type="chart" class="zr16-cls-74"></path>
<path d="M457.5 57.4L515.1 57.4A2 2 0 0 1 517.1 59.4L517.1 65.6A2 2 0 0 1 515.1 67.6L457.5 67.6L457.5 57.4Z" fill="#1a7f4b" ecmeta_series_index="2" ecmeta_data_index="5" ecmeta_ssr_type="chart" class="zr16-cls-74"></path>
<path d="M457.5 28L553 28A2 2 0 0 1 555 30L555 36.2A2 2 0 0 1 553 38.2L457.5 38.2L457.5 28Z" fill="#1a7f4b" ecmeta_series_index="2" ecmeta_data_index="6" ecmeta_ssr_type="chart" class="zr16-cls-74"></path>
<path d="M116 215.8l368.6 0l0 10.2l-368.6 0Z" fill="none" pointer-events="visible" ecmeta_series_index="3" ecmeta_data_index="0" ecmeta_ssr_type="chart" ecmeta_silent="true" class="zr16-cls-72"></path>
<path d="M116 186.4l371.3 0l0 10.2l-371.3 0Z" fill="none" pointer-events="visible" ecmeta_series_index="3" ecmeta_data_index="1" ecmeta_ssr_type="chart" ecmeta_silent="true" class="zr16-cls-72"></path>
<path d="M116 156.9l384.8 0l0 10.2l-384.8 0Z" fill="none" pointer-events="visible" ecmeta_series_index="3" ecmeta_data_index="2" ecmeta_ssr_type="chart" ecmeta_silent="true" class="zr16-cls-72"></path>
<path d="M116 127.5l387.5 0l0 10.2l-387.5 0Z" fill="none" pointer-events="visible" ecmeta_series_index="3" ecmeta_data_index="3" ecmeta_ssr_type="chart" ecmeta_silent="true" class="zr16-cls-72"></path>
<path d="M116 98.1l387.5 0l0 10.2l-387.5 0Z" fill="none" pointer-events="visible" ecmeta_series_index="3" ecmeta_data_index="4" ecmeta_ssr_type="chart" ecmeta_silent="true" class="zr16-cls-72"></path>
<path d="M116 68.7l401.1 0l0 10.2l-401.1 0Z" fill="none" pointer-events="visible" ecmeta_series_index="3" ecmeta_data_index="5" ecmeta_ssr_type="chart" ecmeta_silent="true" class="zr16-cls-72"></path>
<path d="M116 39.2l439 0l0 10.2l-439 0Z" fill="none" pointer-events="visible" ecmeta_series_index="3" ecmeta_data_index="6" ecmeta_ssr_type="chart" ecmeta_silent="true" class="zr16-cls-72"></path>
<text dominant-baseline="central" text-anchor="start" style="font-size:10px;font-family:Carlito, Calibri, 'DejaVu Sans', sans-serif;" transform="translate(439.78 209.6593)" fill="#fff">118</text>
<text dominant-baseline="central" text-anchor="start" style="font-size:10px;font-family:Carlito, Calibri, 'DejaVu Sans', sans-serif;" transform="translate(434.36 180.2307)" fill="#fff">116</text>
<text dominant-baseline="central" text-anchor="start" style="font-size:10px;font-family:Carlito, Calibri, 'DejaVu Sans', sans-serif;" transform="translate(428.94 150.8021)" fill="#fff">114</text>
<text dominant-baseline="central" text-anchor="start" style="font-size:10px;font-family:Carlito, Calibri, 'DejaVu Sans', sans-serif;" transform="translate(423.52 121.3735)" fill="#fff">112</text>
<text dominant-baseline="central" text-anchor="start" style="font-size:10px;font-family:Carlito, Calibri, 'DejaVu Sans', sans-serif;" transform="translate(415.39 91.945)" fill="#fff">109</text>
<text dominant-baseline="central" text-anchor="start" style="font-size:10px;font-family:Carlito, Calibri, 'DejaVu Sans', sans-serif;" transform="translate(401.84 62.5164)" fill="#fff">104</text>
<text dominant-baseline="central" text-anchor="start" style="font-size:10px;font-family:Carlito, Calibri, 'DejaVu Sans', sans-serif;" transform="translate(382.87 33.0878)" fill="#fff">97</text>
<text dominant-baseline="central" text-anchor="start" style="font-size:10px;font-family:Carlito, Calibri, 'DejaVu Sans', sans-serif;" transform="translate(487.56 220.9122)" fill="#5b6875">136</text>
<text dominant-baseline="central" text-anchor="start" style="font-size:10px;font-family:Carlito, Calibri, 'DejaVu Sans', sans-serif;" transform="translate(490.27 191.4836)" fill="#5b6875">137</text>
<text dominant-baseline="central" text-anchor="start" style="font-size:10px;font-family:Carlito, Calibri, 'DejaVu Sans', sans-serif;" transform="translate(503.82 162.055)" fill="#5b6875">142</text>
<text dominant-baseline="central" text-anchor="start" style="font-size:10px;font-family:Carlito, Calibri, 'DejaVu Sans', sans-serif;" transform="translate(506.53 132.6265)" fill="#5b6875">143</text>
<text dominant-baseline="central" text-anchor="start" style="font-size:10px;font-family:Carlito, Calibri, 'DejaVu Sans', sans-serif;" transform="translate(506.53 103.1979)" fill="#5b6875">143</text>
<text dominant-baseline="central" text-anchor="start" style="font-size:10px;font-family:Carlito, Calibri, 'DejaVu Sans', sans-serif;" transform="translate(520.08 73.7693)" fill="#5b6875">148</text>
<text dominant-baseline="central" text-anchor="start" style="font-size:10px;font-family:Carlito, Calibri, 'DejaVu Sans', sans-serif;" transform="translate(558.02 44.3407)" fill="#5b6875">162</text>
<path d="M457.5 230L457.5 24" fill="none" pointer-events="visible" stroke="#16202c" stroke-width="1.3" stroke-dasharray="5.2,2.6" ecmeta_series_index="2" ecmeta_data_index="0" ecmeta_ssr_type="chart" ecmeta_silent="true" class="zr16-cls-72"></path>
<text dominant-baseline="central" text-anchor="middle" style="font-size:10px;font-family:Carlito, Calibri, 'DejaVu Sans', sans-serif;font-weight:700;" xml:space="preserve" y="-5" transform="translate(457.46 236)" fill="#16202c">Base 126</text>
<style ><![CDATA[
.zr16-cls-72:hover {
pointer-events:none;
}
.zr16-cls-73:hover {
cursor:pointer;
fill:rgba(196,41,33,1);
}
.zr16-cls-74:hover {
cursor:pointer;
fill:rgba(28,139,82,1);
}

]]>

</style>
</svg>